PathFileType        4      (X/Y/Z)      C:\Users\pc\Desktop\IMUTRC\Sujet_05\Sujet_05_Tpose.trc         
DataRate	CameraRate	NumFrames	NumMarkers	Units	OrigDataRate	OrigDataStartFrame	OrigNumFrames
60.0	60.0	4	64	mm	60.0	102	116
Frame#	Time	pHipOrigin			pRightASI			pLeftASI			pRightCSI			pLeftCSI			pRightIschialTub			pLeftIschialTub			pSacrum			pL5SpinalProcess			pL3SpinalProcess			pT12SpinalProcess			pIJ			pT4SpinalProcess			pT8SpinalProcess			pPX			pC7SpinalProcess			pTopOfHead			pRightAuricularis			pLeftAuricularis			pBackOfHead			pRightAcromion			pLeftAcromion			pRightArmLatEpicondyle			pRightArmMedEpicondyle			pLeftArmLatEpicondyle			pLeftArmMedEpicondyle			pRightUlnarStyloid			pRightRadialStyloid			pRightOlecranon			pLeftUlnarStyloid			pLeftRadialStyloid			pLeftOlecranon			pRightTopOfHand			pRightPinky			pRightBallHand			pLeftTopOfHand			pLeftPinky			pLeftBallHand			pRightGreaterTrochanter			pRightKneeLatEpicondyle			pRightKneeMedEpicondyle			pRightPatella			pLeftGreaterTrochanter			pLeftKneeLatEpicondyle			pLeftKneeMedEpicondyle			pLeftPatella			pRightTibialTub			pRightLatMalleolus			pRightMedMalleolus			pLeftTibialTub			pLeftLatMalleolus			pLeftMedMalleolus			pRightHeelFoot			pRightFirstMetatarsal			pRightFifthMetatarsal			pRightPivotFoot			pRightHeelCenter			pRightToe			pLeftHeelFoot			pLeftFirstMetatarsal			pLeftFifthMetatarsal			pLeftPivotFoot			pLeftHeelCenter			pLeftToe			
		X1	Y1	Z1	X2	Y2	Z2	X3	Y3	Z3	X4	Y4	Z4	X5	Y5	Z5	X6	Y6	Z6	X7	Y7	Z7	X8	Y8	Z8	X9	Y9	Z9	X10	Y10	Z10	X11	Y11	Z11	X12	Y12	Z12	X13	Y13	Z13	X14	Y14	Z14	X15	Y15	Z15	X16	Y16	Z16	X17	Y17	Z17	X18	Y18	Z18	X19	Y19	Z19	X20	Y20	Z20	X21	Y21	Z21	X22	Y22	Z22	X23	Y23	Z23	X24	Y24	Z24	X25	Y25	Z25	X26	Y26	Z26	X27	Y27	Z27	X28	Y28	Z28	X29	Y29	Z29	X30	Y30	Z30	X31	Y31	Z31	X32	Y32	Z32	X33	Y33	Z33	X34	Y34	Z34	X35	Y35	Z35	X36	Y36	Z36	X37	Y37	Z37	X38	Y38	Z38	X39	Y39	Z39	X40	Y40	Z40	X41	Y41	Z41	X42	Y42	Z42	X43	Y43	Z43	X44	Y44	Z44	X45	Y45	Z45	X46	Y46	Z46	X47	Y47	Z47	X48	Y48	Z48	X49	Y49	Z49	X50	Y50	Z50	X51	Y51	Z51	X52	Y52	Z52	X53	Y53	Z53	X54	Y54	Z54	X55	Y55	Z55	X56	Y56	Z56	X57	Y57	Z57	X58	Y58	Z58	X59	Y59	Z59	X60	Y60	Z60	X61	Y61	Z61	X62	Y62	Z62	X63	Y63	Z63	X64	Y64	Z64	
102	1.683	271.90401	878.7945	283.7783600000001	345.09823	971.00623	402.9856700000001	323.76151	971.099	153.99545000000006	302.05372	1033.53209	385.63799000000006	284.33497	1033.62486	178.48629000000005	224.40662	825.91654	340.08874000000003	215.50086	825.91654	236.46650000000005	209.84199	898.73969	289.1589200000001	241.66153	986.49854	286.6541700000001	250.93836	1100.69637	286.93248000000006	247.50593	1205.24629	288.60231000000005	397.97618	1426.77709	278.0267200000001	245.65057	1401.72964	292.4058100000001	241.93983	1309.70344	290.92152000000004	398.16172	1300.89045	275.52197000000007	250.01068	1458.6894	298.99236000000013	327.93609	1727.16098	282.0157600000001	364.11574	1616.85942	337.8623000000001	274.8726	1626.13625	222.27295000000012	274.13045	1624.46642	315.3195900000001	289.25169	1425.38556	489.4457700000001	235.63159	1432.80703	94.34540000000008	325.89518	1331.13293	718.0269600000001	380.81404	1322.1344	704.2044800000001	163.36505	1350.70705	-128.3913799999999	217.54176	1335.21474	-138.78143999999992	452.80227	1250.51724	916.7367500000001	439.35086	1294.5822	935.7542600000002	355.85936	1306.36378	696.4119400000001	210.3986	1277.14175	-364.20850999999993	189.34018	1320.92841	-375.24793999999997	199.17363	1322.78378	-121.71205999999991	489.353	1230.10821	1095.40857	490.83729	1216.74956	1010.1544700000001	472.37639	1254.32074	950.9682700000001	195.18459	1284.56322	-548.7247399999999	219.11882	1258.03148	-470.24271999999996	218.09837	1285.39814	-403.07843999999994	275.80028	846.97496	432.7643100000001	255.39124	486.47718	408.64454000000006	259.10198	485.5495	338.23337000000004	296.76592	486.38441	373.20704000000006	256.22616	847.90264	134.88517000000004	230.6221	487.5904	156.50019000000003	239.34232	485.64227	226.35475000000002	274.40875	486.29165	188.87634000000003	308.17643	451.50352	374.59856	225.79814	85.25410999999997	407.43856	229.04503	83.95534999999998	347.88128	286.0048	452.4312	186.46437000000003	204.55419	85.71794999999999	155.38697	211.88289	83.95534999999998	214.57317	189.24742	-0.18554000000002288	373.48534	354.09676	2.3192099999999787	350.84987	346.67529	1.7625999999999737	428.96081	372.65043	2.226439999999976	390.92579	228.11735	3.061359999999977	377.19608	452.98781	2.9685899999999754	398.62556	169.6733	0.1855399999999885	187.94866	333.96603	2.1336699999999866	214.85148	328.4927	1.9481399999999915	136.555	353.54015	2.1336699999999893	175.2394	208.636	3.3396599999999883	185.25838	434.06307	2.7830499999999896	169.6733	
103	1.7	271.90401	878.7945	283.7783600000001	345.09823	971.00623	402.89291000000003	323.76151	971.099	153.90268000000006	302.05372	1033.53209	385.54523000000006	284.33497	1033.62486	178.39352000000005	224.40662	825.91654	339.99597000000006	215.50086	825.91654	236.37373000000005	209.84199	898.73969	289.06615000000005	241.66153	986.49854	286.5614100000001	250.93836	1100.69637	286.8397100000001	247.50593	1205.15352	288.60231000000005	397.88342	1426.77709	277.9339500000001	245.5578	1401.72964	292.3130400000001	241.93983	1309.70344	290.92152000000004	398.16172	1300.89045	275.52197000000007	249.91791	1458.6894	298.99236000000013	327.75055	1727.25375	282.0157600000001	363.9302	1616.95219	337.9550700000001	274.68706	1626.13625	222.27295000000012	273.94491	1624.46642	315.3195900000001	289.15892	1425.38556	489.3530000000001	235.63159	1432.80703	94.25263000000008	325.89518	1331.04016	717.9341900000001	380.81404	1322.04163	704.1117100000001	163.36505	1350.70705	-128.48414999999991	217.54176	1335.21474	-138.87420999999992	452.89504	1250.3317	916.5512100000001	439.35086	1294.39667	935.6614900000001	355.85936	1306.27101	696.4119400000001	210.3986	1277.04899	-364.20850999999993	189.34018	1320.92841	-375.24793999999997	199.17363	1322.78378	-121.71205999999991	489.44577	1229.8299	1095.31581	490.83729	1216.56403	1010.0617000000001	472.37639	1254.13521	950.7827300000001	195.18459	1284.47045	-548.8175099999999	219.11882	1257.93871	-470.24271999999996	218.09837	1285.39814	-403.07843999999994	275.80028	846.97496	432.7643100000001	255.48401	486.47718	408.55178000000006	259.10198	485.5495	338.23337000000004	296.85869	486.38441	373.11427000000003	256.22616	847.90264	134.88517000000004	230.6221	487.5904	156.50019000000003	239.34232	485.64227	226.35475000000002	274.40875	486.29165	188.78357000000003	308.17643	451.50352	374.50579	225.79814	85.25410999999997	407.43856	229.1378	83.95534999999998	347.88128	286.0048	452.4312	186.37160000000003	204.55419	85.71794999999999	155.38697	211.88289	83.95534999999998	214.57317	189.24742	-0.18554000000002288	373.48534	354.09676	2.3192099999999787	350.84987	346.67529	1.7625999999999737	428.96081	372.65043	2.226439999999976	390.92579	228.11735	3.061359999999977	377.19608	452.98781	2.9685899999999754	398.62556	169.6733	0.1855399999999885	187.94866	333.96603	2.1336699999999866	214.85148	328.4927	1.8553699999999915	136.555	353.54015	2.1336699999999893	175.2394	208.636	3.3396599999999883	185.25838	434.06307	2.7830499999999896	169.6733	
104	1.717	271.99678	878.7945	283.68559000000005	345.09823	971.00623	402.89291000000003	323.76151	971.099	153.90268000000006	302.05372	1033.53209	385.45246000000003	284.33497	1033.62486	178.30075000000005	224.40662	825.91654	339.9032000000001	215.59363	825.91654	236.37373000000005	209.84199	898.73969	288.9733800000001	241.66153	986.49854	286.46864000000005	250.84559	1100.69637	286.74694000000005	247.50593	1205.15352	288.5095400000001	397.88342	1426.77709	277.9339500000001	245.46503	1401.72964	292.3130400000001	241.84707	1309.70344	290.82875000000007	398.06895	1300.89045	275.52197000000007	249.82514	1458.59663	298.99236000000013	327.47224	1727.25375	282.2012900000001	363.83743	1616.95219	337.9550700000001	274.59429	1626.22902	222.27295000000012	273.85214	1624.37366	315.3195900000001	289.06615	1425.38556	489.3530000000001	235.53882	1432.80703	94.25263000000008	325.80241	1330.94739	717.8414300000001	380.81404	1321.94886	704.1117100000001	163.27228	1350.61428	-128.48414999999991	217.54176	1335.12197	-138.87420999999992	452.89504	1250.23894	916.4584400000001	439.35086	1294.3039	935.5687200000001	355.85936	1306.17825	696.3191700000001	210.3986	1276.95622	-364.20850999999993	189.34018	1320.83564	-375.24793999999997	199.17363	1322.78378	-121.71205999999991	489.44577	1229.64436	1095.13027	490.93006	1216.37849	1009.8761600000001	472.37639	1253.94967	950.6899600000002	195.18459	1284.37769	-548.8175099999999	219.11882	1257.84594	-470.24271999999996	218.09837	1285.2126	-403.1712099999999	275.80028	846.97496	432.67154000000005	255.48401	486.47718	408.55178000000006	259.19475	485.5495	338.14060000000006	296.85869	486.38441	373.02150000000006	256.22616	847.90264	134.79240000000004	230.6221	487.5904	156.40742000000003	239.43509	485.64227	226.35475000000002	274.50152	486.29165	188.78357000000003	308.17643	451.50352	374.50579	225.79814	85.25410999999997	407.43856	229.1378	83.95534999999998	347.88128	286.0048	452.4312	186.37160000000003	204.55419	85.71794999999999	155.38697	211.88289	83.95534999999998	214.57317	189.24742	-0.18554000000002288	373.48534	354.09676	2.3192099999999787	350.84987	346.67529	1.7625999999999737	428.96081	372.65043	2.226439999999976	390.92579	228.11735	3.061359999999977	377.19608	452.98781	2.9685899999999754	398.62556	169.6733	0.1855399999999885	187.94866	333.96603	2.1336699999999866	214.85148	328.4927	1.8553699999999915	136.555	353.54015	2.1336699999999893	175.2394	208.636	3.3396599999999883	185.25838	434.06307	2.7830499999999896	169.6733	
105	1.733	271.99678	878.7945	283.5928200000001	345.09823	971.00623	402.80014000000006	323.76151	971.099	153.80991000000006	302.05372	1033.53209	385.45246000000003	284.2422	1033.62486	178.30075000000005	224.49939	825.91654	339.81043000000005	215.59363	825.91654	236.28097000000005	209.93476	898.73969	288.9733800000001	241.66153	986.49854	286.46864000000005	250.84559	1100.69637	286.74694000000005	247.41317	1205.15352	288.5095400000001	397.79065	1426.77709	277.9339500000001	245.46503	1401.72964	292.2202800000001	241.84707	1309.61067	290.82875000000007	398.06895	1300.98322	275.42921000000007	249.73237	1458.59663	298.89960000000013	327.28671	1727.25375	282.2940600000001	363.6519	1616.95219	337.9550700000001	274.40875	1626.22902	222.36571000000012	273.66661	1624.37366	315.4123600000001	289.06615	1425.38556	489.2602300000001	235.44605	1432.80703	94.15987000000008	325.80241	1330.85462	717.8414300000001	380.72127	1321.94886	704.0189400000002	163.27228	1350.61428	-128.57691999999992	217.54176	1335.12197	-138.96697999999992	452.89504	1250.0534	916.3656800000001	439.35086	1294.11836	935.5687200000001	355.85936	1306.17825	696.2264000000001	210.3986	1276.86345	-364.30127999999996	189.24742	1320.65011	-375.34070999999994	199.08086	1322.69101	-121.80482999999991	489.44577	1229.36606	1095.0375	490.83729	1216.19295	1009.7834000000001	472.37639	1253.76413	950.5971900000001	195.18459	1284.19215	-548.8175099999999	219.11882	1257.6604	-470.24271999999996	218.09837	1285.11983	-403.1712099999999	275.89305	846.97496	432.57878000000005	255.48401	486.47718	408.45901000000003	259.19475	485.45673	338.14060000000006	296.85869	486.38441	373.02150000000006	256.22616	847.90264	134.69963000000007	230.71486	487.5904	156.40742000000003	239.43509	485.64227	226.26198000000002	274.50152	486.29165	188.78357000000003	308.17643	451.50352	374.41303	225.79814	85.25410999999997	407.43856	229.04503	83.95534999999998	347.88128	286.0048	452.4312	186.27883000000003	204.55419	85.71794999999999	155.38697	211.88289	83.95534999999998	214.57317	189.24742	-0.18554000000002288	373.48534	354.09676	2.3192099999999787	350.84987	346.67529	1.7625999999999737	428.96081	372.65043	2.226439999999976	390.92579	228.11735	3.061359999999977	377.19608	452.98781	2.9685899999999754	398.62556	169.6733	0.1855399999999885	187.94866	333.96603	2.1336699999999866	214.85148	328.4927	1.8553699999999915	136.555	353.54015	2.1336699999999893	175.2394	208.636	3.3396599999999883	185.16561	434.06307	2.7830499999999896	169.6733	
